<svg width="38" height="38" viewBox="0 0 38 38" fill="none" xmlns="http://www.w3.org/2000/svg">
<g clip-path="url(#clip0_1:455)">
<path d="M13.3452 29.792L7.67602 32.8843C7.34334 33.0657 7.04436 33.2887 6.76617 33.5318C10.0715 36.3187 14.3382 38 19 38C23.6274 38 27.8669 36.3438 31.1629 33.5949C30.8589 33.3382 30.5291 33.1073 30.1634 32.9252L24.0927 29.8902C23.3084 29.498 22.8129 28.6965 22.8129 27.8196V25.4378C22.9836 25.2435 23.1786 24.994 23.3872 24.6993C24.2146 23.5306 24.8406 22.2451 25.2743 20.8964C26.053 20.6562 26.6266 19.9371 26.6266 19.0825V16.54C26.6266 15.9808 26.3778 15.4811 25.9913 15.1312V11.4559C25.9913 11.4559 26.7463 5.73657 19.0007 5.73657C11.2552 5.73657 12.0102 11.4559 12.0102 11.4559V15.1312C11.623 15.4811 11.3749 15.9808 11.3749 16.54V19.0825C11.3749 19.7521 11.727 20.3415 12.2539 20.682C12.8892 23.4474 14.5526 25.4378 14.5526 25.4378V27.7608C14.5519 28.6068 14.0887 29.3862 13.3452 29.792Z" fill="#E7ECED"/>
<path d="M19.3248 0.00289036C8.83323 -0.176355 0.182138 8.18365 0.00289223 18.6752C-0.0989191 24.624 2.55248 29.9705 6.77406 33.5261C7.0501 33.2852 7.34621 33.0643 7.67531 32.8851L13.3445 29.7927C14.088 29.3869 14.5512 28.6076 14.5512 27.7601V25.4371C14.5512 25.4371 12.887 23.4467 12.2525 20.6813C11.7263 20.3408 11.3735 19.7521 11.3735 19.0818V16.5393C11.3735 15.9801 11.6223 15.4804 12.0087 15.1305V11.4552C12.0087 11.4552 11.2538 5.73587 18.9993 5.73587C26.7449 5.73587 25.9899 11.4552 25.9899 11.4552V15.1305C26.377 15.4804 26.6251 15.9801 26.6251 16.5393V19.0818C26.6251 19.9364 26.0515 20.6555 25.2729 20.8957C24.8391 22.2444 24.2132 23.5299 23.3858 24.6986C23.1772 24.9933 22.9821 25.2428 22.8115 25.4371V27.8189C22.8115 28.6958 23.3069 29.4981 24.0913 29.8895L30.162 32.9245C30.5262 33.1066 30.8553 33.3368 31.1586 33.5927C35.2526 30.1785 37.8975 25.0736 37.9957 19.3248C38.1764 8.83323 29.8171 0.182136 19.3248 0.00289036Z" fill="#262838"/>
</g>
<defs>
<clipPath id="clip0_1:455">
<rect width="38" height="38" fill="white"/>
</clipPath>
</defs>
</svg>
