<svg width="16" height="16" viewBox="0 0 16 16" fill="none" xmlns="http://www.w3.org/2000/svg">
<path d="M3.67997 8.12797C3.67997 8.12797 6.52797 5.27997 6.52797 2.91197C6.52797 1.34397 5.24797 0.0639648 3.67997 0.0639648C2.11197 0.0639648 0.83197 1.34397 0.83197 2.91197C0.83197 5.40797 3.67997 8.12797 3.67997 8.12797ZM2.20797 2.91197C2.20797 2.07997 2.87997 1.43997 3.67997 1.43997C4.47997 1.43997 5.15197 2.11197 5.15197 2.91197C5.15197 3.74397 4.47997 4.38397 3.67997 4.38397C2.87997 4.38397 2.20797 3.71197 2.20797 2.91197Z" fill="#B8C3E0"/>
<path d="M14.2081 3.90402L13.9841 3.96802L12.7361 4.06402L12.3841 4.60802L12.1601 4.57602L11.1681 3.68002L11.0401 3.23202L10.8481 2.75202L10.2401 2.20802L9.50406 2.08002L9.47206 2.40002L10.1761 3.10402L10.5281 3.52002L10.1441 3.71202L9.82406 3.61602L9.34406 3.42402L9.37606 3.04002L8.73606 2.78402L8.51206 3.68002L7.87206 3.84002L7.93606 4.35202L8.76806 4.51202L8.89606 3.71202L9.56806 3.80802L9.88806 4.00002H10.4001L10.7521 4.70402L11.6801 5.63202L11.6161 5.98402L10.8801 5.85602L9.60006 6.49602L8.67206 7.61602L8.54406 8.09602H8.22406L7.61606 7.80802L7.00806 8.09602L7.16806 8.73602L7.42406 8.44802H7.87206L7.84006 9.02402L8.22406 9.12002L8.60806 9.53602L9.21606 9.37602L9.92006 9.50402L10.7521 9.72802L11.1681 9.76002L11.8721 10.56L13.2161 11.36L12.3521 13.024L11.4241 13.44L11.0721 14.4L9.72806 15.296L9.60006 15.776C12.9921 14.944 15.5521 11.904 15.5521 8.22402C15.5201 6.62402 15.0401 5.15202 14.2081 3.90402Z" fill="#B8C3E0"/>
<path d="M8.672 12.288L8.096 11.232L8.608 10.144L8.096 9.984L7.52 9.408L6.24 9.12L5.824 8.224V8.768H5.632L4.8 7.648C4.384 8.128 4.096 8.448 4.064 8.48L3.712 8.832L3.36 8.48C3.264 8.384 1.6 6.816 0.8 4.896C0.288 5.888 0 7.04 0 8.224C0 12.512 3.488 16 7.776 16C8.096 16 8.416 15.968 8.736 15.936L8.64 15.008C8.64 15.008 8.992 13.6 8.992 13.568C9.024 13.504 8.672 12.288 8.672 12.288Z" fill="#B8C3E0"/>
<path d="M7.16797 1.95204L7.74397 2.04804L9.11998 1.92004L9.50398 1.50404L10.048 1.15204L10.816 1.28004L11.104 1.24804C10.08 0.736041 8.95998 0.480042 7.77597 0.480042C7.23197 0.480042 6.68797 0.544041 6.17596 0.640042C6.59197 1.08804 6.87997 1.63204 7.00797 2.24004L7.16797 1.95204ZM8.09598 1.24804L8.89598 0.800042L9.40798 1.08804L8.67198 1.66404L7.96798 1.72804L7.64797 1.53604L8.09598 1.24804Z" fill="#B8C3E0"/>
</svg>
