<svg width="16" height="16" viewBox="0 0 16 16" fill="none" xmlns="http://www.w3.org/2000/svg">
<path d="M8.03199 7.84C9.82399 7.84 11.264 6.08 11.264 3.936C11.264 1.76 10.784 0 8.03199 0C5.27999 0 4.79999 1.76 4.79999 3.904C4.79999 6.08 6.23999 7.84 8.03199 7.84Z" fill="#B8C3E0"/>
<path d="M14.112 13.632C14.048 9.85599 13.568 8.79999 9.79203 8.12799C9.79203 8.12799 9.24803 8.79999 8.03203 8.79999C6.81603 8.79999 6.27203 8.12799 6.27203 8.12799C2.56003 8.79999 2.01603 9.85599 1.95203 13.504C1.95203 13.792 1.95203 13.824 1.95203 13.792C1.95203 13.856 1.95203 13.984 1.95203 14.176C1.95203 14.176 2.84803 15.968 8.03203 15.968C13.216 15.968 14.112 14.176 14.112 14.176C14.112 14.048 14.112 13.952 14.112 13.888C14.112 13.92 14.112 13.888 14.112 13.632Z" fill="#B8C3E0"/>
</svg>
