<svg width="16" height="16" viewBox="0 0 16 16" fill="none" xmlns="http://www.w3.org/2000/svg">
<path d="M15.296 3.58402H15.36C15.552 3.58402 15.744 3.52002 15.84 3.36002C15.968 3.20002 16 3.00802 15.968 2.78402L15.648 1.21602C15.552 0.832024 15.232 0.512024 14.848 0.512024H1.15199C0.799989 0.512024 0.447989 0.832024 0.351989 1.21602L0.0319885 2.78402C-1.14702e-05 3.00802 0.0319885 3.20002 0.159989 3.36002C0.255989 3.52002 0.447989 3.58402 0.639989 3.58402H0.703989C0.543989 4.51202 0.351989 5.44002 0.191989 6.40002V6.46402C0.0319885 7.32802 0.415989 8.12802 1.21599 8.54402V14.24C1.21599 14.784 1.66399 15.2 2.17599 15.2H13.856C14.4 15.2 14.816 14.752 14.816 14.24V8.54402C15.616 8.12802 16 7.32802 15.84 6.46402L15.296 3.58402ZM5.15199 6.52802C5.21599 5.53602 5.31199 4.57602 5.37599 3.58402H7.26399C7.26399 4.54402 7.23199 5.53602 7.23199 6.49602C7.23199 7.10402 6.65599 7.45602 6.14399 7.48802C5.85599 7.48802 5.56799 7.36002 5.40799 7.16802C5.27999 7.04002 5.15199 6.81602 5.15199 6.52802ZM2.39999 7.48802C2.11199 7.48802 1.82399 7.36002 1.66399 7.16802C1.56799 7.04002 1.43999 6.84802 1.50399 6.56002L1.98399 3.61602H3.87199L3.58399 6.52802C3.51999 7.04002 3.00799 7.48802 2.39999 7.48802ZM7.42399 11.232C7.42399 11.424 7.26399 11.616 7.03999 11.616H3.83999C3.64799 11.616 3.45599 11.456 3.45599 11.232V10.144C3.45599 9.95202 3.61599 9.76002 3.83999 9.76002H7.03999C7.23199 9.76002 7.42399 9.92002 7.42399 10.144V11.232ZM8.79999 6.49602L8.76799 3.58402H10.656C10.72 4.54402 10.816 5.50402 10.88 6.46402V6.52802C10.912 6.81602 10.784 7.04002 10.656 7.16802C10.464 7.36002 10.176 7.48802 9.91999 7.48802C9.37599 7.48802 8.79999 7.10402 8.79999 6.49602ZM12.544 13.344C12.544 13.536 12.384 13.728 12.16 13.728H10.176C9.98399 13.728 9.79199 13.568 9.79199 13.344V10.496C9.79199 10.304 9.95199 10.112 10.176 10.112H12.16C12.352 10.112 12.544 10.272 12.544 10.496V13.344ZM14.336 7.16802C14.176 7.36002 13.92 7.48802 13.632 7.48802C13.024 7.48802 12.512 7.04002 12.448 6.49602C12.352 5.53602 12.256 4.57602 12.16 3.58402H14.048L14.528 6.52802C14.528 6.84802 14.432 7.04002 14.336 7.16802Z" fill="#B8C3E0"/>
</svg>
