<svg width="12" height="12" viewBox="0 0 12 12" fill="none" xmlns="http://www.w3.org/2000/svg">
<g clip-path="url(#clip0_1:464)">
<path d="M8 2V1.5C7.99955 1.10231 7.84137 0.721041 7.56017 0.439833C7.27896 0.158625 6.89769 0.000446645 6.5 0L5.5 0C5.10231 0.000446645 4.72104 0.158625 4.43983 0.439833C4.15863 0.721041 4.00045 1.10231 4 1.5V2H0.5V3H11.5V2H8ZM5 1.5C5.00015 1.36744 5.05288 1.24035 5.14661 1.14661C5.24035 1.05288 5.36744 1.00015 5.5 1H6.5C6.63256 1.00015 6.75965 1.05288 6.85339 1.14661C6.94712 1.24035 6.99985 1.36744 7 1.5V2H5V1.5Z" fill="#4F5C9C"/>
<path d="M1.90419 10.6657C1.94465 11.0327 2.11918 11.3719 2.39432 11.6181C2.66946 11.8644 3.02583 12.0004 3.39506 12H8.60494C8.97419 12.0004 9.33056 11.8644 9.6057 11.6181C9.88084 11.3719 10.0554 11.0327 10.0958 10.6656L10.892 3.5H1.108L1.90419 10.6657ZM8.00175 4.45844L8.99825 4.54157L8.49825 10.5416L7.50175 10.4585L8.00175 4.45844ZM5.5 4.5H6.5V10.5H5.5V4.5ZM3.99825 4.45844L4.49825 10.4585L3.50175 10.5416L3.00175 4.54157L3.99825 4.45844Z" fill="#4F5C9C"/>
</g>
<defs>
<clipPath id="clip0_1:464">
<rect width="12" height="12" fill="white"/>
</clipPath>
</defs>
</svg>
