<svg width="10" height="10" viewBox="0 0 10 10" fill="none" xmlns="http://www.w3.org/2000/svg">
<g clip-path="url(#clip0_1:863)">
<path d="M4.52319 4.96633L0.0969385 9.39258C-0.0260303 9.51555 -0.0260303 9.71477 0.0969385 9.83774C0.158345 9.8993 0.23897 9.92993 0.319439 9.92993C0.400064 9.92993 0.480532 9.8993 0.541939 9.83774L5.00147 5.37821L9.461 9.83774C9.52256 9.8993 9.60303 9.92993 9.6835 9.92993C9.76397 9.92993 9.84459 9.8993 9.906 9.83774C10.029 9.71477 10.029 9.51555 9.906 9.39258L5.47991 4.96633L9.90897 0.53696C10.0319 0.413992 10.0319 0.214773 9.90897 0.0918042C9.786 -0.0310083 9.58678 -0.0310083 9.46397 0.0918042L5.00163 4.55446L0.538814 0.0919604C0.415845 -0.030852 0.216782 -0.030852 0.0938135 0.0919604C-0.0291553 0.214929 -0.0291553 0.414148 0.0938135 0.537117L4.52319 4.96633Z" fill="#9B9B9B"/>
</g>
<defs>
<clipPath id="clip0_1:863">
<rect width="10" height="10" fill="white"/>
</clipPath>
</defs>
</svg>
